<svg width="30" height="30" viewBox="0 0 30 30" fill="none" xmlns="http://www.w3.org/2000/svg">
<g id="Group 2147208537">
<g id="Group 2147208521">
<path id="Vector 23" d="M0 17.8125H7.03125L0 27.1875V17.8125Z" fill="#733FC0"/>
<path id="Vector 25" d="M30 17.8125H22.9688L30 27.1875V17.8125Z" fill="#733FC0"/>
<path id="Vector 24" d="M0 12.1875H7.03125L0 2.8125V12.1875Z" fill="#733FC0"/>
<path id="Vector 26" d="M30 12.1875H22.9688L30 2.8125V12.1875Z" fill="#733FC0"/>
</g>
<g id="Group 2147208522">
<path id="Vector 23_2" d="M17.8125 30L17.8125 22.9688L27.1875 30L17.8125 30Z" fill="#733FC0"/>
<path id="Vector 25_2" d="M17.8125 0L17.8125 7.03125L27.1875 -4.09794e-07L17.8125 0Z" fill="#733FC0"/>
<path id="Vector 24_2" d="M12.1875 30L12.1875 22.9688L2.8125 30L12.1875 30Z" fill="#733FC0"/>
<path id="Vector 26_2" d="M12.1875 0L12.1875 7.03125L2.8125 4.09794e-07L12.1875 0Z" fill="#733FC0"/>
</g>
<path id="Subtract" fill-rule="evenodd" clip-rule="evenodd" d="M12.1875 7.03125H12.1875V12.1875H7.03125L9.375 15L7.03125 17.8125V17.8125H12.1875V22.9688L15 20.625L17.8125 22.9687L17.8125 22.9688V17.8125H22.9688L20.625 15L22.9687 12.1875L22.9688 12.1875H17.8125V7.03125L15 9.375L12.1875 7.03125Z" fill="#733FC0"/>
</g>
</svg>
